<svg id="图层_1" data-name="图层 1" xmlns="http://www.w3.org/2000/svg" viewBox="0 0 801 802"><defs><style>.cls-1{fill:#fff;}.cls-1,.cls-2{stroke:#000;stroke-miterlimit:10;}.cls-2{fill:#224740;}</style></defs><rect class="cls-1" x="0.5" y="0.5" width="800" height="801"/><path class="cls-2" d="M255.61,517.24,182.5,569.53c-16.57,13.4-68.15,8.09-74.37-.12-8.7-11.49-23.82-26.39-14-35.29s37.18-8.36,37.18-8.36l30.06-.58s19.51-4,27.92-4.89c11.23-1.23,13-3.43,10.56-5.93-.67.24-.48-.48-.48-.48-5.6-4.86-25.35-10.58-22.23-12.31l62-52.44c-1.87,1.12-163.29,65.48-163.29,65.48L62.67,526.27s-2.17-1.48-20.75,27.34c-2.5,3.88,37.87,28.51,37.87,28.51C209.06,671.81,328.12,475,353.3,420.12l-.24-2.29,5.15-5.58c18.53,15.86,32.57,37.32,45.87,45.14,20.4,12-.15-8.39,38.94,24.3s39.47,148.93,36.6,175.53-29.74,29.64-29.74,29.64,9.93-28.87,7.36-78.72c-2.57-49.16-81.43-51.44-83.41-51.51C471,602.21,394,738.52,394,738.52s35,4.34,93.39-56.92-25.93-226.14-20.1-253.09c2.69-12.37,95.24-19.54,95.24-19.54s117.86,1.61,120.76,5.78c5.4,7.7,9.11,22.5,4.08,46.84-5,23.83-78.09,90.15-81.16,93,2.29-.59,39.63-11.61,96.61-69.39,58.81-59.69-1.66-127.51-58.34-103.49S528,381.27,528,381.27c-7.7-8.51-11.89-18.92-13.46-30.47h0l-27.48-5.14,27.46-18.19h0c7.21-63.27,66.28-143.75,74.05-152.62,10.38-11.8,15.63-11.29,7.31-23-6.65-9.35-3-12.33-.71-13.37l.64-.2c-9.26,2.67-52.44,13.88-116.82,11.24-72-2.92-111-84.78-112-87.12l-2.21-2.86s-38.57,66-12.6,108.84c20.18,33.3,153.43,44.76,153.43,44.76s.82,14.78-9.7,21.19-32.69-2.77-72.55-15.43l-8.88-1.7c-11.23-1.51-36.36-13.58-64-40.62l-26.19,218,5.65,18-67.34,97.66c-2.6,2.47-2.6,2.47-6.91,7m68.6-122.67M407,285.14s13.38-5.44,25.85.58,19.25,21.2,19.25,21.2-13.37,5.47-25.84-.55S407,285.14,407,285.14Z"/></svg>