<?xml version="1.0" standalone="no"?>
<!DOCTYPE svg PUBLIC "-//W3C//DTD SVG 20010904//EN"
 "http://www.w3.org/TR/2001/REC-SVG-20010904/DTD/svg10.dtd">
<svg version="1.0" xmlns="http://www.w3.org/2000/svg"
 width="300.000000pt" height="300.000000pt" viewBox="0 0 300.000000 300.000000"
 preserveAspectRatio="xMidYMid meet">

<g transform="translate(0.000000,300.000000) scale(0.100000,-0.100000)"
fill="#000000" stroke="none">
<path d="M1695 2813 c-66 -59 -212 -199 -326 -310 -180 -177 -213 -206 -272
-232 -225 -101 -402 -274 -508 -496 -61 -126 -88 -238 -96 -387 l-6 -116 -43
-7 c-102 -15 -241 -120 -293 -223 -28 -54 -51 -145 -51 -200 0 -74 30 -171 74
-236 83 -123 195 -185 348 -194 l87 -4 51 -69 c70 -93 161 -174 248 -216 94
-47 177 -52 422 -28 171 17 185 17 353 0 97 -9 216 -16 265 -13 80 4 99 9 167
42 85 42 208 154 260 238 l30 48 67 0 c165 0 313 91 387 238 84 167 56 355
-74 491 -62 65 -155 117 -227 127 l-45 6 -6 117 c-7 144 -34 257 -91 377 -97
205 -231 350 -422 459 -41 23 -146 67 -234 96 -88 30 -160 57 -160 60 0 3 56
117 125 254 69 136 125 256 125 266 0 38 -38 17 -155 -88z m-22 -208 c-105
-211 -116 -238 -102 -249 9 -6 87 -36 173 -66 86 -30 156 -58 156 -62 0 -15
-519 -493 -527 -485 -2 2 30 76 70 163 81 175 104 231 95 239 -3 3 -82 30
-177 59 -95 30 -175 57 -179 61 -10 10 595 591 605 581 2 -2 -49 -110 -114
-241z m-322 -432 c82 -25 149 -51 149 -56 0 -6 -39 -94 -86 -196 -117 -253
-121 -292 -26 -214 54 44 230 204 396 360 l120 112 40 -21 c158 -80 319 -253
402 -434 57 -123 78 -228 78 -391 l1 -141 70 -4 c127 -7 233 -76 291 -190 39
-75 45 -199 14 -280 -30 -80 -103 -157 -179 -192 -57 -25 -161 -46 -161 -33 0
4 12 42 26 84 80 239 -69 406 -296 333 -53 -17 -83 -21 -122 -17 -52 7 -68 15
-208 111 -104 71 -190 98 -325 104 -172 7 -294 -34 -435 -144 -96 -75 -176
-91 -272 -54 -102 39 -202 19 -265 -53 -59 -67 -69 -175 -28 -292 14 -38 25
-72 25 -74 0 -2 -25 -1 -55 2 -156 16 -285 135 -314 289 -37 203 114 394 322
406 l68 4 -6 92 c-22 297 119 610 358 793 59 45 235 143 259 143 6 0 78 -21
159 -47z m271 -1154 c74 -16 162 -58 233 -111 95 -71 140 -91 225 -96 60 -3
86 0 130 17 68 26 106 26 147 1 51 -31 68 -65 67 -135 -3 -160 -182 -413 -350
-496 -66 -33 -72 -34 -179 -32 -60 1 -148 6 -195 12 -46 6 -132 11 -190 11
-58 0 -144 -5 -190 -11 -47 -6 -134 -11 -195 -12 -104 -2 -114 0 -175 29 -118
56 -240 189 -311 339 -62 132 -62 220 0 279 40 38 85 43 165 16 52 -18 81 -22
138 -18 82 5 132 27 218 93 138 107 303 147 462 114z"/>
<path d="M835 1604 c-112 -20 -204 -67 -229 -118 -16 -33 -17 -46 -8 -103 38
-231 247 -384 480 -352 177 25 320 165 355 347 l12 62 56 0 55 0 12 -60 c39
-212 205 -351 417 -351 129 0 233 46 319 141 68 75 116 216 102 294 -33 174
-640 215 -809 54 -37 -35 -45 -38 -97 -38 -52 0 -60 3 -99 40 -89 85 -347 123
-566 84z m1495 -140 c0 -3 -37 -82 -82 -175 -71 -147 -94 -183 -101 -157 -5
15 157 338 169 338 8 0 14 -3 14 -6z m30 -69 c0 -23 -99 -215 -110 -215 -17 0
-12 15 42 124 48 100 68 126 68 91z"/>
<path d="M1356 795 c-12 -33 -5 -75 17 -101 46 -53 85 3 50 73 -20 41 -56 56
-67 28z"/>
<path d="M1606 778 c-22 -35 -29 -74 -16 -97 15 -28 34 -26 60 6 29 37 25 107
-7 111 -14 2 -27 -5 -37 -20z"/>
</g>
</svg>
