<svg id="图层_1" data-name="图层 1" xmlns="http://www.w3.org/2000/svg" viewBox="0 0 222.83 205.07"><defs><style>.cls-1{fill:#010101;}.cls-2{fill:#fff;}</style></defs><path class="cls-1" d="M105.74,205.07h-5.69l-.66-14.85-8,14.85H87.78l-3.84-15.32-5,15.32H73.06l7.65-23.2H87l3.66,14.73,7.95-14.73h6.08Zm23.76,0h-6.18l-.62-5.14h-7.08l-2.35,5.14h-6.06L119,181.87h6.27Zm-7.2-8.41-1.11-8.87-4,8.87ZM153,205.07H146.5l-2.31-4.84a23.12,23.12,0,0,0-1.78-3.29,4,4,0,0,0-1.32-1.36,3.74,3.74,0,0,0-1.52-.26h-.89l-1.47,9.75h-5.88l3.37-23.2h9.05c3.3,0,5.53.72,6.71,2.17a7.32,7.32,0,0,1,1.77,4.71,5.63,5.63,0,0,1-1.47,4.14,6.8,6.8,0,0,1-4.09,1.83,6.5,6.5,0,0,1,2.07,1.81,22.3,22.3,0,0,1,1.73,3.23l2.51,5.31Zm-7-16.49a3.22,3.22,0,0,0-1-2.34c-.65-.66-2-1-3.95-1h-.93l-1,6.69h2.35a4.74,4.74,0,0,0,3.48-1,3.28,3.28,0,0,0,1-2.32Zm33.25-6.71-10,10.41,8.52,12.79H171l-8.34-12.37-1.87,12.37h-5.91l3.46-23.2h5.95l-1.48,9.86,9.49-9.86Zm18.7,0-.59,4.13H188l-.72,5h8.15l-.58,4.15h-8.22l-.79,5.73h11.42l-.59,4.15H179.26l3.36-23.2Zm24.87,11.36a13.16,13.16,0,0,1-1.47,6.5,9.44,9.44,0,0,1-4.38,4,16.86,16.86,0,0,1-7.19,1.36h-10.7l3.33-23.2H211a14.31,14.31,0,0,1,5.3.9,9.83,9.83,0,0,1,5.87,6.12,13.12,13.12,0,0,1,.7,4.34Zm-6,.09a9.05,9.05,0,0,0-.66-3.39,6.08,6.08,0,0,0-2.44-2.78,9,9,0,0,0-4.92-1.15h-1l-2.16,14.92h3.12a10,10,0,0,0,3.82-.67,6.21,6.21,0,0,0,2.51-1.79,6.83,6.83,0,0,0,1.3-2.41,9.58,9.58,0,0,0,.39-2.73Z"/><path class="cls-1" d="M204,114.29V61.71a8.57,8.57,0,0,0-8.57-8.57H98.29a8.58,8.58,0,0,0-8.58,8.57v52.58ZM89.71,117.14v41.72a8.58,8.58,0,0,0,8.58,8.57h97.14a8.57,8.57,0,0,0,8.57-8.57V117.14Z"/><path class="cls-2" d="M119.28,102.94V84L129,96.15,138.69,84v18.93h9.71v-33h-9.71L129,82.07l-9.71-12.13h-9.71v33Zm65-16.5h-9.7V69.94H164.9v16.5h-9.71l14.56,17Z"/></svg>